<?xml version="1.0" standalone="no"?><!DOCTYPE svg PUBLIC "-//W3C//DTD SVG 1.1//EN" "http://www.w3.org/Graphics/SVG/1.1/DTD/svg11.dtd"><svg t="1539329336903" class="icon" style="" viewBox="0 0 1024 1024" version="1.1" xmlns="http://www.w3.org/2000/svg" p-id="20322" xmlns:xlink="http://www.w3.org/1999/xlink" width="48" height="48"><defs><style type="text/css"></style></defs><path d="M870.8 95.8H641c-17.7 0-32 14.3-32 32s14.3 32 32 32h178.8L612.6 367c-12.5 12.5-12.5 32.8 0 45.2 6.2 6.2 14.4 9.4 22.6 9.4 8.2 0 16.4-3.1 22.6-9.4L865 205v178.8c0 17.7 14.3 32 32 32s32-14.3 32-32V154c0-32.1-26.1-58.2-58.2-58.2zM206.2 159.8H385c17.7 0 32-14.3 32-32s-14.3-32-32-32H155.2C123.1 95.8 97 121.9 97 154v229.8c0 17.7 14.3 32 32 32s32-14.3 32-32V205l207.2 207.2c6.2 6.2 14.4 9.4 22.6 9.4s16.4-3.1 22.6-9.4c12.5-12.5 12.5-32.8 0-45.2L206.2 159.8zM413.4 611.3c-12.5-12.5-32.8-12.5-45.2 0L161 818.5V639.8c0-17.7-14.3-32-32-32s-32 14.3-32 32v229.8c0 32.1 26.1 58.2 58.2 58.2H385c17.7 0 32-14.3 32-32s-14.3-32-32-32H206.2l207.2-207.2c12.5-12.5 12.5-32.8 0-45.3zM897 607.8c-17.7 0-32 14.3-32 32v178.8L657.8 611.3c-12.5-12.5-32.8-12.5-45.2 0s-12.5 32.8 0 45.2l207.2 207.2H641c-17.7 0-32 14.3-32 32s14.3 32 32 32h229.8c32.1 0 58.2-26.1 58.2-58.2V639.8c0-17.7-14.3-32-32-32z" p-id="20323"></path></svg>