<?xml version="1.0" standalone="no"?><!DOCTYPE svg PUBLIC "-//W3C//DTD SVG 1.1//EN" "http://www.w3.org/Graphics/SVG/1.1/DTD/svg11.dtd"><svg t="1539326485262" class="icon" style="" viewBox="0 0 1024 1024" version="1.1" xmlns="http://www.w3.org/2000/svg" p-id="12844" xmlns:xlink="http://www.w3.org/1999/xlink" width="48" height="48"><defs><style type="text/css"></style></defs><path d="M723.6 755.1h-427c-6.6 0-12-5.4-12-12v-221c0-121 99-220 220-220h10.9c121 0 220 99 220 220v221c0.1 6.6-5.3 12-11.9 12zM827.6 909.8H199.2c-6.6 0-12-5.4-12-12v-79.7c0-6.6 5.4-12 12-12h628.4c6.6 0 12 5.4 12 12v79.7c0 6.6-5.4 12-12 12zM746 428.3c-6.5-24.3 8.1-49.6 32.4-56.1l61.8-16.6c24.3-6.5 49.6 8.1 56.1 32.4 6.5 24.3-8.1 49.6-32.4 56.1l-61.8 16.6c-24.3 6.5-49.6-8.1-56.1-32.4zM660.6 276c-17.8-17.8-17.8-47 0-64.8l45.3-45.3c17.8-17.8 47-17.8 64.8 0 17.8 17.8 17.8 47 0 64.8L725.4 276c-17.8 17.8-47 17.8-64.8 0zM514.6 255c-25.2 0-45.8-20.6-45.8-45.8v-64c0-25.2 20.6-45.8 45.8-45.8 25.2 0 45.8 20.6 45.8 45.8v64c0 25.1-20.6 45.8-45.8 45.8zM374.1 276c-17.8 17.8-47 17.8-64.8 0L264 230.7c-17.8-17.8-17.8-47 0-64.8 17.8-17.8 47-17.8 64.8 0l45.3 45.3c17.8 17.8 17.8 47 0 64.8zM266.9 428.3c-6.5 24.3-31.8 38.9-56.1 32.4L149 444.1c-24.3-6.5-38.9-31.8-32.4-56.1s31.8-38.9 56.1-32.4l61.8 16.6c24.3 6.5 38.9 31.7 32.4 56.1z" fill="#FF1F1F" p-id="12845"></path><path d="M489.2 651.1L587.4 501h-98.2z" fill="#FFFFFF" p-id="12846"></path><path d="M533.3 402.9L435 553h98.3z" fill="#FFFFFF" p-id="12847"></path></svg>